<svg xmlns="http://www.w3.org/2000/svg" width="120" height="47"><defs><clipPath id="a"><path d="M.063 0h119.726v46.898H.062zm0 0"/></clipPath><clipPath id="b"><path d="M16.945 7.953h85.965v30.992H16.945zm0 0"/></clipPath></defs><g clip-path="url(#a)"><path style="stroke:none;fill-rule:nonzero;fill:#fff;fill-opacity:1" d="M119.512 10.059c-.563-4.868-2.168-6.223-2.168-6.223-4.926-5.012-11.07-3.934-16.594-3.211C91 .652 81.293 1.727 71.566 2.301 51.152 2.387 30.562.945 10.246 4.5 8.34 5.59-1.918 4.715.402 10.684c.61 2.48 2.828 5.238 2.758 7.515.305.399.727-.515.906.059.633 1.547 1.66.816 2.504 1.734-1.175 2.442-.332 4.477.473 6.61-1.418.554-3.234.293-4.05 2.132-.087 1.332-.54 1.078-1.044 1.02-.363-.035-1.101.11-.976.527.422 1.43-1.391 2.258-.254 3.66-.781 1.52.539 2.836.36 4.48-.024.333.1.614.296.692.875.418-.398 1.235-.262 2.121 8.95 6.059 18.657 1.871 27.828 4.657 2.38-1.95.59.691 1.543.28.743-.476 1.282 1.5 2.121.38.13-.32-.07-1.082.395-.934.242.078.453.059.488-.39.051-.672-.394-.254-.511-.602 1.277-1.773.96 2.441 2.16 2.266-.055-.516-.407-1.254.308-1.157.711-.742.735-1.355 1.364.309.023.363.136.617.316.789 1.969-1.809 3.93.645 5.992-.172 1.27-.898 2.485.485 3.766.145.453-.274.906-.762 1.34.058 5.308.176 10.965-.554 15.996.028 13.449-1.09 27.82.449 41.996-.993 3.344-.554 6.816-1.343 10.078-1.976 0 0 2.637-1.734 2.637-9.524 0-7.785.562-6.812.648-13.015.086-6.203.48-6.457-.086-11.324zm0 0"/></g><g clip-path="url(#b)"><path style="stroke:none;fill-rule:nonzero;fill:#000;fill-opacity:1" d="M31.605 38.523 26.18 26.16h-5.364v12.363h-3.863V7.953h8.55c2.993 0 5.255.785 6.79 2.348 1.539 1.558 2.309 3.844 2.309 6.855 0 1.887-.414 3.535-1.247 4.946-.832 1.402-2.011 2.46-3.535 3.171l5.914 13.004v.246zm-10.789-27.25v11.594h4.653c1.601 0 2.883-.52 3.843-1.558.958-1.04 1.434-2.422 1.434-4.153 0-3.922-1.773-5.883-5.32-5.883zm17.614 17.32v-2.476c0-3.305.8-5.918 2.406-7.844 1.602-1.921 3.715-2.882 6.344-2.882 2.625 0 4.738.937 6.336 2.812 1.601 1.875 2.422 4.43 2.46 7.664v2.39c0 3.29-.792 5.895-2.386 7.81-1.594 1.917-3.723 2.878-6.375 2.878-2.63 0-4.735-.93-6.32-2.793-1.586-1.863-2.407-4.382-2.465-7.558zm3.718-2.495v2.16c0 2.34.457 4.176 1.375 5.512.91 1.335 2.141 2.003 3.692 2.003 3.273 0 4.957-2.367 5.055-7.093v-2.563c0-2.324-.461-4.16-1.383-5.512-.922-1.347-2.157-2.023-3.707-2.023-1.528 0-2.746.676-3.657 2.023-.918 1.352-1.375 3.184-1.375 5.493zM81.254 7.953v30.57h-3.856V24.395H65.113v14.128h-3.84V7.953h3.84v13.149h12.285V7.953zm21.648 30.57h-3.855c-.227-.484-.39-1.312-.488-2.476-1.309 1.933-2.989 2.898-5.032 2.898-2.047 0-3.652-.578-4.804-1.734-1.153-1.152-1.727-2.781-1.727-4.879 0-2.309.781-4.145 2.344-5.504 1.566-1.355 3.715-2.05 6.437-2.078H98.5v-2.41c0-1.36-.3-2.324-.902-2.899-.602-.57-1.516-.859-2.746-.859-1.118 0-2.024.332-2.723 1-.7.664-1.047 1.508-1.047 2.527h-3.71c0-1.164.343-2.273 1.023-3.328.687-1.054 1.609-1.883 2.773-2.484 1.156-.606 2.445-.906 3.871-.906 2.324 0 4.09.578 5.297 1.73 1.207 1.152 1.824 2.836 1.855 5.047v11.465c.012 1.746.246 3.265.711 4.558zm-8.808-2.957c.91 0 1.777-.254 2.601-.757.825-.504 1.426-1.133 1.805-1.891V27.5h-2.098c-1.761.027-3.152.426-4.172 1.188-1.015.761-1.527 1.832-1.527 3.207 0 1.285.258 2.214.774 2.796.52.582 1.394.875 2.617.875zm0 0"/></g></svg>