<svg xmlns="http://www.w3.org/2000/svg" width="120" height="47"><defs><clipPath id="a"><path d="M.012 0H119.84v46.898H.012zm0 0"/></clipPath><clipPath id="b"><path d="M16.91 7.953h86.04v30.992H16.91zm0 0"/></clipPath></defs><g clip-path="url(#a)"><path style="stroke:none;fill-rule:nonzero;fill:#551e19;fill-opacity:1" d="M119.563 10.059c-.563-4.868-2.168-6.223-2.168-6.223-4.93-5.012-11.082-3.934-16.61-3.211-9.758.027-19.476 1.102-29.21 1.676-20.43.086-41.04-1.356-61.368 2.199-1.91 1.09-12.176.215-9.855 6.184.609 2.48 2.828 5.238 2.761 7.515.305.399.727-.515.907.059.632 1.547 1.66.816 2.507 1.734-1.18 2.442-.332 4.477.473 6.61-1.418.554-3.238.293-4.055 2.132-.086 1.332-.543 1.078-1.043 1.02-.367-.035-1.105.11-.98.527.422 1.43-1.39 2.258-.254 3.66-.785 1.52.539 2.836.36 4.48-.024.333.1.614.3.692.871.418-.402 1.235-.266 2.121 8.958 6.059 18.676 1.871 27.852 4.657 2.383-1.95.59.691 1.543.28.742-.476 1.285 1.5 2.125.38.129-.32-.07-1.082.395-.934.242.078.457.059.488-.39.05-.672-.395-.254-.512-.602 1.277-1.773.965 2.441 2.164 2.266-.058-.516-.406-1.254.309-1.157.71-.742.734-1.355 1.363.309.023.363.137.617.316.789 1.973-1.809 3.93.645 6-.172 1.266-.898 2.485.485 3.77.145.45-.274.906-.762 1.34.058 5.312.176 10.972-.554 16.008.028 13.46-1.09 27.843.449 42.03-.993 3.349-.554 6.825-1.343 10.087-1.976 0 0 2.64-1.734 2.64-9.524 0-7.785.563-6.812.649-13.015.086-6.203.48-6.457-.086-11.324zm0 0"/></g><g clip-path="url(#b)"><path style="stroke:none;fill-rule:nonzero;fill:#fff;fill-opacity:1" d="m31.582 38.523-5.43-12.363h-5.37v12.363h-3.868V7.953h8.559c2.996 0 5.261.785 6.797 2.348 1.539 1.558 2.312 3.844 2.312 6.855 0 1.887-.418 3.535-1.246 4.946-.836 1.402-2.016 2.46-3.543 3.171l5.922 13.004v.246zm-10.8-27.25v11.594h4.655c1.606 0 2.887-.52 3.852-1.558.957-1.04 1.434-2.422 1.434-4.153 0-3.922-1.778-5.883-5.328-5.883zm17.632 17.32v-2.476c0-3.305.8-5.918 2.406-7.844 1.602-1.921 3.72-2.882 6.348-2.882 2.629 0 4.742.937 6.34 2.812 1.605 1.875 2.426 4.43 2.469 7.664v2.39c0 3.29-.797 5.895-2.391 7.81-1.598 1.917-3.727 2.878-6.383 2.878-2.629 0-4.738-.93-6.324-2.793-1.586-1.863-2.41-4.382-2.465-7.558zm3.719-2.495v2.16c0 2.34.457 4.176 1.375 5.512.91 1.335 2.14 2.003 3.695 2.003 3.277 0 4.961-2.367 5.059-7.093v-2.563c0-2.324-.461-4.16-1.383-5.512-.922-1.347-2.16-2.023-3.711-2.023-1.531 0-2.75.676-3.66 2.023-.918 1.352-1.375 3.184-1.375 5.493zM81.27 7.953v30.57h-3.856V24.395H65.117v14.128h-3.84V7.953h3.84v13.149h12.297V7.953zm21.671 30.57h-3.859c-.23-.484-.394-1.312-.488-2.476-1.313 1.933-2.992 2.898-5.035 2.898-2.051 0-3.657-.578-4.813-1.734-1.152-1.152-1.726-2.781-1.726-4.879 0-2.309.78-4.145 2.343-5.504 1.57-1.355 3.719-2.05 6.446-2.078h2.722v-2.41c0-1.36-.3-2.324-.902-2.899-.602-.57-1.516-.859-2.75-.859-1.117 0-2.024.332-2.723 1-.699.664-1.047 1.508-1.047 2.527h-3.714c0-1.164.343-2.273 1.023-3.328.687-1.054 1.613-1.883 2.777-2.484 1.157-.606 2.45-.906 3.875-.906 2.325 0 4.09.578 5.301 1.73 1.207 1.152 1.828 2.836 1.856 5.047v11.465c.011 1.746.25 3.265.714 4.558zm-8.816-2.957c.91 0 1.777-.254 2.602-.757.824-.504 1.425-1.133 1.804-1.891V27.5h-2.097c-1.762.027-3.157.426-4.176 1.188-1.02.761-1.528 1.832-1.528 3.207 0 1.285.258 2.214.774 2.796.52.582 1.394.875 2.621.875zm0 0"/></g></svg>